<?xml version="1.0" encoding="UTF-8"?>
<svg id="Layer_2" data-name="Layer 2" xmlns="http://www.w3.org/2000/svg" viewBox="0 0 170.26 203.14">
  <defs>
    <style>
      .cls-1 {
        fill: #fff;
      }
    </style>
  </defs>
  <g id="Layer_1-2" data-name="Layer 1">
    <g>
      <g>
        <path class="cls-1" d="m64.84,122.9c6.39-12.33,25.32-51.84,17.74-90.95-1.96-10.09-5.3-18.2-8.86-24.58-19.76,13.66-34.01,36.64-37.04,59.91-3.37,25.94,7.77,48.04,28.15,55.62Z"/>
        <path d="m64.6,122.27c.34-1.08.72-2.1,1.18-3.11,3.47-8,6.5-16.24,8.91-24.62,7.98-27.57,9.58-59.38-5.43-84.68,0,0,7.38,1.72,7.38,1.72-24.23,17.35-40.72,56.67-31.51,85.59,2.85,8.94,8.6,17.2,16.35,22.71,1.13.83,1.94,1.55,3.13,2.4h0Zm.48,1.26c-12.7-1.95-23.27-11.19-29.08-22.46C18.13,65.25,39.73,23.55,70.82,3.16c0,0,4.83-3.16,4.83-3.16,6.05,10.84,10.59,22.8,11.71,35.18,2.6,21.98-2.21,43.93-10.27,64.17-3.43,8.28-7.17,16.62-12,24.18h0Z"/>
      </g>
      <g>
        <path class="cls-1" d="m64.83,123.01c7.45-9.72,32.24-39.47,72.55-44.82,10.4-1.38,19.83-.88,27.8.37-.65,22.37-13.12,42.63-32.59,52.71-21.7,11.24-48.6,8-67.76-8.26Z"/>
        <path d="m64.16,123.08c16.21-24.44,42.41-43.79,71.69-48.88,11.3-2.18,23.03-1.77,34.41-.12,0,0-.02,4.61-.02,4.61-.15,40.5-34.46,72.96-75.36,63.35-11.9-2.84-23.24-9.36-30.72-18.97h0Zm1.34-.14c2.44,1.14,5.1,2.27,7.37,3.38,7.43,3.31,15.58,5.36,23.56,5.87,31.26,2.55,62.29-21.84,63.68-53.78,0,0,4.28,5.16,4.28,5.16-35.44-7-70.22,8.57-94.24,34.51-1.6,1.6-2.91,3.39-4.65,4.86h0Z"/>
      </g>
      <g>
        <path class="cls-1" d="m63.99,123.75c-4.37,7.35-18.92,30.1-42.57,38.56-6.1,2.18-11.63,2.99-16.31,3.14.39-14.91,7.71-29.87,19.13-38.92,12.74-10.09,28.51-11.22,39.75-2.77Z"/>
        <path d="m64.65,123.62c-9.55,20.28-26.93,39.3-49.23,45.26-4.79,1.35-10.35,1.71-15.34,2.04,0,0-.07-5.61-.07-5.61-.27-25.08,15.4-51.33,42.74-51.91,8.3-.05,17.08,3.4,21.9,10.22h0Zm-1.32.26c-3.49-.68-6.5-1.63-9.96-1.72-9.6-.41-18.55,3.88-25.43,10.24-9.22,8.44-16.97,20.24-17.72,33.17,0,0-5.26-5.24-5.26-5.24,17.94.33,34.4-9.91,46.61-22.59,3.77-3.88,7.28-8.07,10.49-12.44.35-.54.79-.97,1.28-1.43h0Z"/>
      </g>
      <g>
        <path class="cls-1" d="m64.09,123.31c-3.15,6.42-11.93,27.41,2.26,55.49,3.66,7.24,8.14,13.56,12.47,18.79,14.51-3.59,22.43-14.9,20.54-29.52-2.11-16.29-16.08-34.07-35.27-44.76Z"/>
        <path d="m64.29,123.95c-.01.8-.21,1.27-.47,1.97-8.77,24.65,1.98,50.13,18.86,68.47,0,0-5.06-1.67-5.06-1.67,25.2-7.51,13.91-35.64,2.28-50.92-3.5-4.69-7.49-9.3-11.71-13.51-1.72-1.63-2.23-2.63-3.89-4.35h0Zm-.4-1.29c20.84,5.08,41.96,25.45,42.61,47.85.36,16.15-11.03,28.88-26.48,31.94,0,0-3.26.69-3.26.69-4.89-6.27-9.43-12.89-12.86-20.11-8.37-17.09-10.9-37.87-2.74-55.47.79-1.65,1.55-3.5,2.73-4.89h0Z"/>
      </g>
      <path d="m95.31,69.91c.9-7.32,2.4-14.47,3.98-21.64.95-4.05,2.33-8.51,3-12.62.88-5.39,1.49-11.89,1.64-17.35.22-5.85-.12-11.72-.75-17.61l.66-.13c1.7,5.72,2.76,11.63,3.45,17.61.23,2.25.51,6.76.57,9.02.03,2.27-.09,6.81-.23,9.07-.18,2.62-.46,6.44-.74,9.1-.56,4.55-1.88,8.97-3.7,13.17-1.9,4.2-4.2,8.22-7.28,11.67,0,0-.61-.28-.61-.28h0Z"/>
      <path d="m106.18,75.5c4.27-7.17,10.85-12.96,18.36-16.56,2.23-.98,5.43-2.29,7.65-3.21,10.04-4.07,21.02-6.75,31.81-7.43,0,0,.11.66.11.66-10.28,2.67-20.29,6.64-29.63,11.64-2.01,1.1-4.78,2.86-6.7,4.16-4.35,2.97-8.99,5.4-13.69,7.79-2.44,1.25-4.86,2.46-7.47,3.45,0,0-.44-.51-.44-.51h0Z"/>
    </g>
  </g>
</svg>